<?xml version="1.0" standalone="no"?>
<!DOCTYPE svg PUBLIC "-//W3C//DTD SVG 20010904//EN"
 "http://www.w3.org/TR/2001/REC-SVG-20010904/DTD/svg10.dtd">
<svg version="1.0" xmlns="http://www.w3.org/2000/svg"
 width="1500.000000pt" height="1500.000000pt" viewBox="0 0 1500.000000 1500.000000"
 preserveAspectRatio="xMidYMid meet">

<g transform="translate(0.000000,1500.000000) scale(0.100000,-0.100000)"
fill="#000000" stroke="none">
<path d="M0 7500 l0 -7500 7500 0 7500 0 0 7500 0 7500 -7500 0 -7500 0 0
-7500z m2968 2486 c76 -21 128 -55 208 -138 39 -40 268 -305 509 -588 241
-283 444 -522 452 -530 11 -12 13 76 11 569 l-3 584 -112 41 c-98 36 -113 44
-113 64 l0 22 273 -2 c263 -3 272 -4 272 -23 0 -15 -21 -27 -105 -60 -58 -22
-111 -44 -118 -48 -9 -6 -12 -223 -12 -973 l0 -965 -43 3 -44 3 -647 760
c-356 418 -659 771 -672 785 l-24 25 2 -704 3 -704 110 -41 c90 -34 111 -46
113 -64 l3 -22 -271 0 -271 0 3 22 c2 18 23 30 113 64 l110 41 3 900 2 900
-100 27 c-93 26 -100 30 -100 54 l0 25 198 -6 c125 -4 216 -11 250 -21z m2573
-545 c258 -66 431 -237 501 -496 31 -115 31 -364 0 -480 -54 -201 -166 -348
-330 -433 -115 -60 -210 -83 -372 -89 -273 -10 -470 62 -623 227 -65 70 -127
189 -154 295 -13 53 -17 112 -17 240 -1 198 12 261 77 395 76 157 240 289 413
334 154 40 366 43 505 7z m1479 15 c166 -27 278 -78 380 -172 69 -64 113 -131
149 -222 l26 -67 5 -465 5 -464 45 -13 c25 -6 64 -17 88 -23 32 -8 42 -16 42
-32 0 -20 -3 -20 -177 -16 -152 4 -186 8 -233 26 -62 24 -132 87 -161 144 -11
21 -21 38 -24 38 -2 0 -17 -19 -33 -42 -52 -75 -115 -129 -191 -166 -69 -33
-83 -36 -185 -40 -363 -13 -594 191 -536 473 15 74 65 197 88 218 36 32 632
127 801 127 20 0 9 321 -14 405 -46 170 -133 245 -285 245 -41 0 -92 -5 -112
-11 l-38 -10 0 -218 c0 -251 10 -231 -108 -231 -138 0 -221 79 -222 211 0 97
67 196 170 249 119 61 341 85 520 56z m1953 -13 c115 -33 250 -132 292 -213 9
-16 19 -30 23 -30 4 0 18 19 31 42 43 75 117 143 198 184 71 35 83 38 167 38
107 0 177 -15 265 -58 109 -52 193 -143 238 -256 16 -40 18 -98 23 -565 l5
-519 45 -13 c25 -6 64 -17 88 -23 31 -8 42 -16 42 -30 0 -19 -8 -20 -213 -20
-293 0 -347 18 -398 132 -24 53 -24 55 -29 553 -5 476 -7 502 -26 551 -84 208
-240 202 -360 -12 l-34 -61 0 -540 0 -539 83 -20 c70 -17 82 -23 85 -42 l3
-22 -401 0 -401 0 3 22 c3 19 15 25 86 41 l83 19 -3 541 c-4 591 -4 590 -64
682 -90 140 -230 100 -328 -92 l-26 -52 0 -539 0 -540 48 -11 c117 -29 122
-31 122 -51 0 -20 -9 -20 -405 -20 -395 0 -405 0 -405 20 0 20 16 27 127 51
l53 12 0 638 0 638 -52 15 c-29 8 -69 19 -88 24 -25 6 -35 14 -35 28 0 18 8
19 160 18 190 -1 248 -14 324 -74 28 -22 64 -63 80 -91 l29 -51 27 46 c55 94
179 183 287 206 55 11 184 3 251 -17z m-3335 -2315 c70 -25 178 -85 233 -129
l27 -21 74 76 c70 70 78 76 117 76 l41 0 0 -270 0 -271 -57 3 -56 3 -17 50
c-61 179 -192 344 -327 410 -47 23 -75 29 -148 33 -84 4 -93 2 -145 -25 -143
-76 -202 -280 -125 -432 58 -116 138 -179 495 -395 223 -135 301 -193 366
-274 228 -284 149 -647 -177 -810 -209 -105 -524 -128 -748 -56 -86 29 -193
84 -232 121 l-27 24 -27 -38 c-16 -21 -51 -57 -79 -80 -40 -34 -58 -43 -88
-43 l-38 0 0 275 0 275 58 0 59 0 13 -42 c32 -108 125 -255 210 -331 179 -161
468 -179 613 -39 80 76 122 219 98 327 -27 121 -122 208 -418 384 -239 142
-316 195 -392 266 -107 100 -170 206 -196 332 -69 323 121 554 515 627 14 2
88 3 165 2 123 -2 149 -5 213 -28z m3413 -19 c85 -29 139 -102 139 -189 0
-112 -89 -200 -200 -200 -111 0 -200 88 -200 200 0 135 134 231 261 189z
m1244 -560 c58 -21 138 -66 201 -113 9 -7 25 2 54 32 57 60 98 82 148 82 l42
0 0 -245 0 -246 -57 3 -57 3 -26 60 c-52 123 -95 190 -170 266 -59 59 -89 81
-133 97 -68 26 -164 29 -206 8 -60 -31 -111 -114 -111 -182 0 -46 32 -121 68
-160 48 -51 115 -94 296 -191 229 -123 277 -154 352 -228 99 -99 119 -144 119
-270 0 -87 -4 -107 -27 -157 -67 -145 -222 -224 -488 -249 -231 -22 -384 12
-531 116 l-47 33 -43 -45 c-53 -54 -106 -83 -154 -83 l-35 0 0 245 0 245 58 0
57 0 29 -71 c62 -153 171 -281 290 -339 123 -61 286 -49 361 25 42 43 70 128
61 188 -18 109 -76 156 -416 337 -180 96 -228 127 -291 190 -95 95 -135 193
-127 314 16 238 228 370 583 362 108 -2 142 -7 200 -27z m1565 1 c234 -68 386
-215 440 -426 18 -71 20 -112 20 -510 l0 -433 43 -11 c126 -33 132 -35 132
-55 0 -18 -8 -20 -105 -23 -132 -4 -255 11 -318 38 -55 24 -121 87 -148 142
l-19 37 -50 -67 c-62 -82 -126 -131 -213 -163 -57 -20 -84 -24 -182 -23 -236
2 -398 81 -471 229 -56 115 -48 261 24 405 31 62 34 66 82 78 144 36 606 102
718 102 l47 0 0 119 c0 139 -13 247 -41 338 -28 91 -100 164 -183 188 -63 18
-157 17 -208 -4 l-28 -11 0 -215 c0 -249 9 -230 -110 -230 -137 1 -211 67
-218 194 -5 81 17 138 74 194 105 105 226 138 479 132 127 -2 175 -8 235 -25z
m-5279 -20 c77 -15 133 -45 191 -104 43 -44 70 -91 184 -326 74 -151 156 -319
182 -374 l48 -98 83 212 83 212 -97 202 -97 203 -74 21 c-61 18 -74 26 -74 43
0 21 2 21 228 17 251 -5 276 -10 361 -72 25 -19 62 -55 80 -81 19 -26 109
-204 202 -397 92 -193 169 -352 172 -354 2 -2 72 172 156 387 83 216 150 393
149 394 -2 1 -50 20 -108 42 -85 33 -106 44 -108 62 l-4 22 474 -3 c462 -3
474 -3 513 -25 50 -27 79 -57 102 -108 16 -37 18 -90 23 -635 l5 -594 83 -19
c75 -17 82 -21 82 -43 l0 -24 -400 0 -400 0 0 24 c0 22 7 26 83 44 l82 19 3
639 2 640 -69 17 -70 16 -98 -35 c-54 -19 -102 -39 -106 -43 -4 -4 -126 -307
-271 -672 l-264 -664 -44 -3 -45 -3 -210 436 c-115 240 -213 437 -218 437 -5
0 -86 -195 -181 -434 l-171 -433 -45 -3 -45 -3 -332 694 -333 694 -74 22 c-60
17 -74 25 -74 41 0 19 7 20 194 20 106 0 217 -5 247 -10z"/>
<path d="M5225 9392 c-100 -61 -160 -196 -186 -414 -18 -157 -6 -569 20 -680
62 -267 221 -381 357 -256 121 111 173 354 161 743 -10 332 -65 513 -180 596
-49 35 -124 40 -172 11z"/>
<path d="M6862 8675 c-77 -8 -117 -16 -123 -26 -25 -40 -44 -170 -44 -299 0
-161 17 -221 77 -276 33 -29 45 -34 88 -34 87 0 167 58 231 167 l29 48 0 218
0 217 -72 -1 c-40 -1 -124 -7 -186 -14z"/>
<path d="M11572 5788 l-92 -10 -15 -52 c-29 -103 -37 -176 -34 -292 4 -108 7
-124 34 -179 52 -104 122 -129 221 -80 61 30 91 61 138 139 l36 60 0 213 0
213 -97 -1 c-54 -1 -140 -6 -191 -11z"/>
</g>
</svg>
